<?xml version="1.0" standalone="no"?>
<!DOCTYPE svg PUBLIC "-//W3C//DTD SVG 20010904//EN"
 "http://www.w3.org/TR/2001/REC-SVG-20010904/DTD/svg10.dtd">
<svg version="1.0" xmlns="http://www.w3.org/2000/svg"
 width="249.000000pt" height="80.000000pt" viewBox="0 0 249.000000 80.000000"
 preserveAspectRatio="xMidYMid meet">
<metadata>
Created by potrace 1.10, written by Peter Selinger 2001-2011
</metadata>
<g transform="translate(0.000000,80.000000) scale(0.100000,-0.100000)"
fill="#459991" stroke="none">
<path d="M204 593 c-137 -147 -164 -188 -164 -248 0 -53 53 -105 107 -105 21
1 52 7 68 14 27 12 32 11 53 -7 22 -20 22 -20 36 -1 12 15 17 17 27 6 15 -14
65 -16 74 -2 3 6 13 10 22 10 9 0 27 10 40 22 l23 21 0 -25 c0 -40 47 -53 81
-22 15 13 17 13 22 -1 12 -29 51 -16 105 37 30 29 53 49 50 43 -2 -5 -10 -22
-17 -37 -17 -34 -8 -58 21 -58 22 0 154 117 144 127 -2 2 -34 -24 -70 -58 -37
-34 -69 -60 -71 -57 -3 3 26 61 64 129 38 68 68 125 67 126 -1 1 -12 0 -24 -4
-13 -3 -35 -28 -54 -62 -30 -53 -165 -198 -175 -188 -2 3 10 32 26 66 29 57
30 61 12 61 -11 0 -23 -4 -26 -10 -4 -6 -12 -6 -24 2 -27 17 -64 3 -119 -47
-56 -51 -70 -57 -46 -20 24 36 12 75 -24 75 -40 0 -91 -36 -107 -75 -23 -53
-32 -49 -31 13 l1 57 -74 3 -75 3 19 -21 c14 -16 16 -23 6 -33 -17 -17 -45 4
-49 37 -4 35 26 87 132 229 48 65 86 122 84 129 -2 6 -62 -52 -134 -129z m-39
-88 c-82 -114 -91 -165 -35 -195 27 -14 76 8 72 33 -2 13 5 17 33 17 23 0 35
-5 35 -14 0 -7 3 -28 6 -46 7 -31 6 -32 -15 -21 -18 10 -31 9 -66 -4 -100 -39
-166 41 -118 143 14 29 127 162 139 162 2 0 -21 -34 -51 -75z m285 -160 c0
-26 -56 -95 -77 -95 -41 0 28 118 70 120 4 0 7 -11 7 -25z m175 14 c16 -24
-81 -126 -101 -107 -8 9 14 49 49 86 33 34 42 38 52 21z"/>
<path d="M448 642 c-32 -34 -59 -80 -39 -68 5 3 21 -6 37 -19 29 -25 45 -30
57 -19 7 8 -13 54 -25 54 -4 0 -8 7 -8 16 0 10 -5 14 -15 10 -13 -4 -14 -2 -5
14 6 11 20 20 30 20 20 0 27 14 12 24 -5 3 -25 -12 -44 -32z m2 -62 c0 -5 7
-7 15 -4 9 4 18 -1 21 -10 11 -28 -2 -28 -32 -2 -16 14 -23 26 -16 26 6 0 12
-4 12 -10z"/>
<path d="M1125 568 c-93 -47 -158 -138 -159 -221 -1 -41 3 -52 27 -73 33 -29
98 -32 154 -9 51 21 37 27 -20 8 -83 -27 -127 -1 -127 76 0 77 71 173 155 212
52 24 75 24 75 0 0 -20 -38 -56 -71 -66 -17 -6 -28 -35 -13 -35 19 0 77 46 90
72 30 57 -32 77 -111 36z"/>
<path d="M2030 431 c-5 -11 -10 -27 -10 -35 0 -8 -8 -20 -17 -25 -10 -6 -13
-11 -6 -11 9 0 8 -10 -2 -41 -8 -23 -15 -48 -15 -55 0 -19 32 -18 56 2 18 14
18 15 -3 4 -27 -13 -29 -6 -11 51 8 28 17 39 32 40 17 1 18 2 4 6 -22 5 -22 5
-4 48 13 30 13 35 1 35 -8 0 -19 -9 -25 -19z"/>
<path d="M2100 400 c0 -15 5 -20 18 -18 9 2 17 10 17 18 0 8 -8 16 -17 18 -13
2 -18 -3 -18 -18z"/>
<path d="M1212 327 c-25 -26 -28 -47 -10 -65 31 -31 98 1 98 47 0 46 -52 56
-88 18z m63 3 c9 -14 -23 -70 -40 -70 -20 0 -19 39 2 62 18 20 29 23 38 8z"/>
<path d="M1340 325 c-21 -55 -23 -75 -7 -75 15 0 27 25 33 73 5 34 -13 35 -26
2z"/>
<path d="M1384 328 l-19 -23 23 19 c19 17 22 17 22 3 0 -10 5 -17 10 -17 6 0
10 9 10 20 0 27 -22 25 -46 -2z"/>
<path d="M1455 338 c-2 -7 -15 -53 -28 -101 -21 -73 -22 -88 -10 -85 9 2 23
28 34 63 19 61 71 136 85 122 13 -13 -10 -61 -36 -74 -17 -9 -20 -13 -8 -13
30 0 49 12 64 42 31 60 -15 81 -60 27 -29 -34 -31 -33 -16 5 8 21 6 26 -6 26
-8 0 -16 -6 -19 -12z"/>
<path d="M1602 327 c-25 -26 -28 -47 -10 -65 31 -31 98 4 98 52 0 41 -54 49
-88 13z m63 3 c9 -14 -23 -70 -40 -70 -20 0 -19 39 2 62 18 20 29 23 38 8z"/>
<path d="M1721 328 c-20 -55 -22 -78 -6 -78 8 0 15 6 15 13 0 7 13 28 30 47
22 27 29 31 30 17 0 -21 20 -13 20 9 0 21 -20 17 -48 -8 l-24 -23 6 23 c5 13
3 22 -4 22 -6 0 -14 -10 -19 -22z"/>
<path d="M1834 324 c-48 -48 -8 -100 41 -54 21 20 23 20 22 3 -3 -24 35 -29
54 -7 13 16 12 16 -8 5 -27 -14 -29 -5 -9 43 l14 34 -45 0 c-35 1 -50 -4 -69
-24z m76 7 c0 -13 -50 -71 -61 -71 -15 0 -10 42 8 62 17 19 53 25 53 9z"/>
<path d="M2081 319 c-16 -47 -14 -69 7 -69 19 0 65 29 47 30 -6 0 -17 -6 -24
-12 -11 -11 -13 -8 -8 17 3 17 9 38 12 48 5 11 2 17 -8 17 -8 0 -20 -14 -26
-31z"/>
<path d="M2172 327 c-25 -26 -28 -47 -10 -65 31 -31 98 4 98 52 0 41 -54 49
-88 13z m63 3 c9 -14 -23 -70 -40 -70 -20 0 -19 39 2 62 18 20 29 23 38 8z"/>
<path d="M2291 328 c-19 -54 -22 -78 -7 -78 14 0 32 36 28 53 -1 4 2 17 8 27
9 16 7 20 -5 20 -8 0 -19 -10 -24 -22z"/>
<path d="M2334 328 l-19 -23 23 19 c28 24 36 17 22 -18 -15 -40 -12 -56 8 -56
19 0 65 29 47 30 -6 0 -17 -6 -24 -12 -11 -11 -12 -8 -7 17 12 55 11 60 -10
63 -11 2 -28 -7 -40 -20z"/>
<path d="M657 203 c-4 -3 -7 -23 -7 -43 0 -21 -7 -43 -15 -50 -13 -10 -15 -9
-15 9 0 11 5 21 10 21 6 0 10 6 10 13 -1 14 -40 -30 -40 -44 0 -17 32 -22 41
-8 6 10 9 10 9 2 0 -7 8 -13 18 -13 13 0 14 2 4 9 -10 6 -11 22 -6 59 6 50 5
59 -9 45z"/>
<path d="M1124 158 c-5 -28 -15 -53 -21 -56 -16 -4 -18 34 -3 41 6 3 5 4 -2 3
-7 -1 -14 -15 -16 -30 -3 -22 0 -27 15 -25 10 2 24 0 31 -4 6 -5 12 -7 13 -5
4 24 2 128 -2 128 -3 0 -10 -23 -15 -52z"/>
<path d="M71 174 c-12 -15 -21 -30 -21 -35 0 -33 37 -63 64 -53 25 10 19 22
-8 17 -18 -4 -26 0 -31 16 -14 47 22 80 53 49 9 -9 12 -8 12 4 0 15 -19 28
-40 28 -5 0 -18 -12 -29 -26z"/>
<path d="M481 173 c0 -13 -5 -23 -9 -23 -5 0 -7 -13 -4 -29 3 -23 10 -30 33
-33 17 -3 32 -1 35 4 3 4 0 8 -5 8 -15 0 -14 37 2 43 8 4 8 6 0 6 -6 1 -9 10
-5 23 3 14 2 19 -6 14 -7 -4 -12 -14 -12 -22 0 -23 -18 -16 -23 9 l-4 22 -2
-22z"/>
<path d="M704 179 c-4 -7 0 -9 14 -5 19 6 21 2 25 -41 l3 -48 2 47 c2 40 5 47
25 51 12 2 3 5 -20 6 -23 0 -45 -4 -49 -10z"/>
<path d="M887 183 c9 -3 11 -18 6 -49 -6 -44 -6 -44 26 -44 17 0 31 5 31 11 0
6 7 3 16 -5 8 -9 21 -13 27 -9 8 5 6 9 -5 11 -24 5 -23 19 2 27 22 7 26 20 8
31 -6 4 -22 -6 -37 -25 -37 -44 -51 -40 -51 14 0 36 -3 45 -17 44 -10 0 -13
-3 -6 -6z"/>
<path d="M152 148 c-16 -16 -15 -43 2 -57 11 -9 18 -8 30 4 9 9 16 22 16 29 0
12 -19 36 -30 36 -3 0 -11 -5 -18 -12z"/>
<path d="M212 125 c-1 -19 3 -35 8 -35 6 0 10 9 10 19 0 11 5 23 10 26 6 4 10
-5 10 -19 0 -14 5 -26 11 -26 5 0 8 4 5 9 -3 4 1 17 9 27 14 18 14 18 15 -8 0
-20 5 -28 18 -27 10 0 12 3 5 6 -7 2 -13 18 -13 35 0 30 0 31 -20 13 -13 -12
-20 -14 -20 -5 0 6 -6 10 -14 7 -7 -3 -18 -1 -23 4 -6 6 -10 -3 -11 -26z"/>
<path d="M355 150 c-3 -5 -1 -10 5 -10 6 0 8 -10 4 -25 -3 -14 -2 -25 4 -25
15 0 21 49 6 60 -8 8 -14 8 -19 0z"/>
<path d="M398 155 c-2 -3 -3 -18 0 -35 3 -20 10 -30 21 -29 10 0 11 2 4 6 -8
3 -11 14 -7 28 5 21 -7 41 -18 30z"/>
<path d="M562 148 c-17 -17 -15 -55 3 -61 8 -4 17 -2 20 3 4 6 -1 10 -9 10
-23 0 -20 18 5 25 11 4 18 12 16 18 -5 16 -21 19 -35 5z"/>
<path d="M796 139 c-16 -23 -12 -44 9 -53 22 -8 46 33 34 56 -13 24 -24 23
-43 -3z m34 -19 c0 -11 -7 -20 -15 -20 -8 0 -15 9 -15 20 0 11 7 20 15 20 8 0
15 -9 15 -20z"/>
<path d="M1027 154 c-4 -4 -7 -12 -7 -18 0 -6 4 -4 10 4 8 12 10 12 15 -2 4
-10 4 -22 0 -28 -9 -14 -28 -13 -19 3 6 10 4 10 -7 0 -9 -10 -10 -16 -2 -24 7
-7 13 -7 17 0 4 5 13 8 20 5 11 -4 12 2 7 27 -6 32 -21 46 -34 33z"/>
</g>
</svg>
